<svg width="963" height="823" viewBox="0 0 963 823" fill="none" xmlns="http://www.w3.org/2000/svg">
<path d="M551.276 822C512.843 799.06 -36.1278 816.265 133.669 441.766C303.465 67.2666 767.537 -131.74 871.365 100.53C975.194 332.8 686.081 669.448 400.41 694.108C114.739 718.769 -73.9878 549.011 29.8404 361.475C133.669 173.939 620.686 -83.5655 711.321 130.926C801.955 345.417 686.081 565.643 400.41 578.834C114.739 592.024 -10.3142 510.013 125.064 305.271C260.442 100.53 604.624 82.7512 593.152 194.011C581.679 305.271 562.175 471.015 259.295 449.221C-43.5851 427.428 656.252 62.6785 962 176.806" stroke="white"/>
</svg>
