<svg width="24" height="25" viewBox="0 0 24 25" fill="none" xmlns="http://www.w3.org/2000/svg">
<path d="M0 22V15.2949C0 14.2737 0.519508 13.3226 1.37878 12.7707L4.90055 10.5088C5.83671 9.90751 7.02874 9.87373 7.99744 10.421L10.6644 11.9277C11.7692 12.5519 13.1472 12.4135 14.1058 11.582L19.0343 7.30716C20.9767 5.62231 24 7.00207 24 9.57342V22C24 23.6569 22.6569 25 21 25H3C1.34315 25 0 23.6569 0 22Z" fill="#959DFF"/>
<path d="M1 10.5L5.14395 8.05881C6.08363 7.50525 7.2497 7.50525 8.18938 8.05881L10.5012 9.4207C11.5987 10.0673 12.9849 9.9502 13.9585 9.12874L23 1.5" stroke="#7781FF" stroke-width="2" stroke-linecap="round"/>
</svg>
